<?xml version="1.0" encoding="UTF-8"?>
<svg xmlns="http://www.w3.org/2000/svg" xmlns:xlink="http://www.w3.org/1999/xlink" width="24pt" height="18pt" viewBox="0 0 8 6" version="1.1">
<g id="surface1">
<path style=" stroke:none;fill-rule:nonzero;fill:rgb(80%, 40%, 60%);fill-opacity:0.3;" d="M 3.773438 4.441406 C 3.769531 4.449219 3.765625 4.453125 3.773438 4.441406 Z M 6.886719 3.421875 C 6.636719 3.421875 6.386719 3.476562 6.164062 3.578125 C 6.089844 3.441406 6.011719 3.316406 6 3.226562 C 5.984375 3.121094 5.96875 3.054688 5.984375 2.929688 C 6.003906 2.804688 6.082031 2.625 6.082031 2.609375 C 6.078125 2.597656 6.0625 2.535156 5.902344 2.53125 C 5.742188 2.53125 5.601562 2.5625 5.585938 2.601562 C 5.558594 2.675781 5.535156 2.75 5.519531 2.824219 C 5.492188 2.960938 5.199219 3.453125 5.03125 3.707031 C 4.976562 3.609375 4.929688 3.519531 4.917969 3.449219 C 4.90625 3.34375 4.886719 3.28125 4.90625 3.152344 C 4.921875 3.027344 5.003906 2.847656 5 2.835938 C 5 2.820312 4.984375 2.757812 4.824219 2.757812 C 4.660156 2.753906 4.523438 2.785156 4.507812 2.824219 C 4.488281 2.867188 4.472656 2.960938 4.441406 3.050781 C 4.40625 3.140625 4.015625 3.957031 3.914062 4.167969 C 3.863281 4.273438 3.816406 4.363281 3.785156 4.421875 C 3.777344 4.429688 3.773438 4.4375 3.773438 4.441406 C 3.777344 4.433594 3.777344 4.429688 3.777344 4.429688 C 3.75 4.480469 3.734375 4.507812 3.734375 4.507812 L 3.734375 4.511719 C 3.714844 4.546875 3.691406 4.582031 3.679688 4.582031 C 3.671875 4.582031 3.65625 4.484375 3.683594 4.347656 C 3.742188 4.066406 3.878906 3.625 3.878906 3.609375 C 3.878906 3.601562 3.90625 3.523438 3.789062 3.484375 C 3.675781 3.445312 3.632812 3.511719 3.621094 3.511719 C 3.613281 3.511719 3.605469 3.535156 3.605469 3.535156 C 3.605469 3.535156 3.730469 3.035156 3.363281 3.035156 C 3.132812 3.035156 2.8125 3.273438 2.65625 3.488281 C 2.558594 3.539062 2.34375 3.648438 2.117188 3.761719 C 2.03125 3.808594 1.941406 3.851562 1.859375 3.898438 C 1.851562 3.890625 1.847656 3.886719 1.84375 3.878906 C 1.394531 3.429688 0.570312 3.113281 0.601562 2.515625 C 0.617188 2.292969 0.695312 1.71875 2.191406 1.019531 C 3.417969 0.449219 4.394531 0.605469 4.566406 0.957031 C 4.808594 1.453125 4.042969 2.378906 2.769531 2.515625 C 2.285156 2.5625 2.03125 2.386719 1.964844 2.324219 C 1.898438 2.253906 1.890625 2.25 1.863281 2.261719 C 1.824219 2.285156 1.847656 2.34375 1.863281 2.382812 C 1.902344 2.472656 2.058594 2.636719 2.324219 2.71875 C 2.558594 2.792969 3.125 2.832031 3.8125 2.582031 C 4.585938 2.304688 5.1875 1.527344 5.011719 0.875 C 4.832031 0.214844 3.664062 -0.00390625 2.558594 0.367188 C 1.898438 0.585938 1.1875 0.929688 0.675781 1.378906 C 0.0664062 1.914062 -0.03125 2.378906 0.0078125 2.574219 C 0.148438 3.261719 1.164062 3.710938 1.570312 4.046875 C 1.550781 4.054688 1.53125 4.066406 1.515625 4.074219 C 1.3125 4.167969 0.539062 4.550781 0.34375 4.949219 C 0.125 5.40625 0.378906 5.730469 0.546875 5.773438 C 1.070312 5.910156 1.605469 5.667969 1.890625 5.265625 C 2.179688 4.863281 2.144531 4.335938 2.011719 4.097656 C 2.011719 4.09375 2.007812 4.09375 2.007812 4.089844 C 2.058594 4.058594 2.113281 4.03125 2.167969 4 C 2.269531 3.945312 2.371094 3.890625 2.460938 3.84375 C 2.410156 3.972656 2.375 4.125 2.355469 4.34375 C 2.332031 4.601562 2.445312 4.9375 2.59375 5.066406 C 2.660156 5.125 2.738281 5.125 2.785156 5.125 C 2.960938 5.125 3.035156 4.992188 3.125 4.832031 C 3.230469 4.636719 3.324219 4.414062 3.324219 4.414062 C 3.324219 4.414062 3.207031 5.023438 3.527344 5.023438 C 3.644531 5.023438 3.761719 4.882812 3.8125 4.808594 L 3.8125 4.8125 C 3.8125 4.8125 3.816406 4.804688 3.824219 4.796875 C 3.835938 4.777344 3.84375 4.769531 3.84375 4.769531 L 3.84375 4.765625 C 3.890625 4.6875 3.992188 4.515625 4.148438 4.226562 C 4.351562 3.851562 4.546875 3.386719 4.546875 3.386719 C 4.5625 3.492188 4.589844 3.589844 4.621094 3.691406 C 4.65625 3.800781 4.730469 3.921875 4.789062 4.042969 C 4.742188 4.101562 4.714844 4.136719 4.714844 4.136719 C 4.714844 4.140625 4.714844 4.140625 4.714844 4.140625 C 4.679688 4.1875 4.636719 4.238281 4.589844 4.285156 C 4.433594 4.464844 4.242188 4.667969 4.214844 4.726562 C 4.1875 4.796875 4.195312 4.847656 4.25 4.886719 C 4.292969 4.917969 4.367188 4.921875 4.449219 4.917969 C 4.589844 4.90625 4.691406 4.875 4.742188 4.855469 C 4.832031 4.824219 4.917969 4.78125 4.992188 4.730469 C 5.148438 4.621094 5.246094 4.46875 5.238281 4.261719 C 5.230469 4.152344 5.191406 4.039062 5.144531 3.933594 C 5.160156 3.914062 5.175781 3.894531 5.1875 3.875 C 5.433594 3.535156 5.625 3.164062 5.625 3.164062 C 5.644531 3.265625 5.671875 3.367188 5.703125 3.464844 C 5.734375 3.5625 5.792969 3.664062 5.847656 3.765625 C 5.613281 3.945312 5.46875 4.148438 5.421875 4.285156 C 5.328125 4.535156 5.398438 4.648438 5.535156 4.671875 C 5.597656 4.683594 5.683594 4.65625 5.75 4.632812 C 5.847656 4.601562 5.9375 4.558594 6.019531 4.5 C 6.175781 4.394531 6.328125 4.242188 6.316406 4.039062 C 6.3125 3.945312 6.285156 3.851562 6.25 3.761719 C 6.445312 3.6875 6.699219 3.644531 7.027344 3.679688 C 7.722656 3.753906 7.859375 4.164062 7.832031 4.332031 C 7.804688 4.503906 7.660156 4.597656 7.609375 4.625 C 7.5625 4.652344 7.546875 4.664062 7.550781 4.683594 C 7.558594 4.714844 7.578125 4.714844 7.621094 4.707031 C 7.679688 4.699219 7.984375 4.570312 8 4.253906 C 8.019531 3.855469 7.609375 3.417969 6.886719 3.421875 Z M 1.523438 5.117188 C 1.292969 5.351562 0.96875 5.441406 0.832031 5.367188 C 0.683594 5.285156 0.742188 4.9375 1.023438 4.6875 C 1.199219 4.535156 1.417969 4.394531 1.566406 4.308594 C 1.601562 4.289062 1.648438 4.261719 1.710938 4.226562 C 1.71875 4.222656 1.726562 4.21875 1.726562 4.21875 C 1.734375 4.210938 1.75 4.207031 1.761719 4.199219 C 1.863281 4.554688 1.765625 4.871094 1.523438 5.117188 Z M 3.203125 4.046875 C 3.121094 4.230469 2.953125 4.699219 2.851562 4.671875 C 2.761719 4.652344 2.710938 4.296875 2.832031 3.945312 C 2.894531 3.765625 3.027344 3.554688 3.105469 3.472656 C 3.234375 3.339844 3.371094 3.300781 3.40625 3.351562 C 3.449219 3.421875 3.25 3.929688 3.203125 4.046875 Z M 4.589844 4.667969 C 4.554688 4.683594 4.523438 4.695312 4.507812 4.683594 C 4.5 4.679688 4.523438 4.65625 4.523438 4.65625 C 4.523438 4.65625 4.695312 4.484375 4.765625 4.402344 C 4.804688 4.355469 4.851562 4.300781 4.902344 4.238281 C 4.902344 4.246094 4.902344 4.25 4.902344 4.257812 C 4.902344 4.46875 4.6875 4.609375 4.589844 4.667969 Z M 5.660156 4.4375 C 5.632812 4.421875 5.636719 4.367188 5.722656 4.195312 C 5.753906 4.128906 5.828125 4.015625 5.960938 3.910156 C 5.972656 3.949219 5.980469 3.992188 5.984375 4.035156 C 5.980469 4.296875 5.78125 4.398438 5.660156 4.4375 Z M 5.660156 4.4375 "/>
</g>
</svg>
