<?xml version="1.0" encoding="UTF-8"?>
<svg xmlns="http://www.w3.org/2000/svg" xmlns:xlink="http://www.w3.org/1999/xlink" width="24pt" height="27pt" viewBox="0 0 8 9" version="1.1">
<g id="surface1">
<path style=" stroke:none;fill-rule:nonzero;fill:rgb(34%, 24%, 49%);fill-opacity:0.3;" d="M 5.21875 5.484375 C 5.21875 6.230469 4.511719 6.210938 4.433594 6.210938 L 2.992188 6.210938 L 2.992188 4.777344 L 4.433594 4.777344 C 5.195312 4.777344 5.21875 5.335938 5.21875 5.484375 Z M 4.324219 4.199219 C 4.335938 4.199219 5.011719 4.214844 5.011719 3.558594 C 5.011719 3.285156 4.949219 2.929688 4.324219 2.929688 L 2.992188 2.929688 L 2.992188 4.199219 Z M 8 1.875 L 8 7.125 C 7.996094 7.847656 7.402344 8.433594 6.667969 8.4375 L 1.332031 8.4375 C 0.597656 8.433594 0.00390625 7.847656 0 7.125 L 0 1.875 C 0.00390625 1.152344 0.597656 0.566406 1.332031 0.5625 L 6.667969 0.5625 C 7.402344 0.566406 7.996094 1.152344 8 1.875 Z M 6.035156 5.585938 C 6.035156 5.207031 5.917969 4.5625 5.160156 4.402344 L 5.160156 4.390625 C 5.570312 4.21875 5.828125 3.894531 5.828125 3.414062 C 5.828125 3.289062 5.863281 2.273438 4.441406 2.273438 L 2.175781 2.273438 L 2.175781 6.867188 C 4.464844 6.867188 4.671875 6.898438 5.09375 6.765625 C 5.347656 6.691406 6.035156 6.453125 6.035156 5.585938 Z M 6.035156 5.585938 "/>
</g>
</svg>
