<?xml version="1.0" encoding="UTF-8"?>
<svg xmlns="http://www.w3.org/2000/svg" xmlns:xlink="http://www.w3.org/1999/xlink" width="20pt" height="30pt" viewBox="0 0 24 24" version="1.1">
<g id="surface1">
<path style=" stroke:none;fill-rule:nonzero;fill:rgb(0%, 47%, 84%);fill-opacity:0.3;" d="M 22.644531 7.484375 C 23.152344 6.335938 23.648438 4.652344 23.648438 3.367188 C 23.648438 -0.0429688 19.914062 -1.242188 13.820312 1.558594 C 8.773438 1.222656 3.917969 5.011719 2.703125 10.300781 C 4.152344 8.664062 6.375 6.441406 8.421875 5.558594 C 5.878906 7.820312 3.710938 10.6875 2.0625 13.675781 C 1.089844 15.453125 0 18.324219 0 20.472656 C 0 25.09375 4.351562 24.527344 8.449219 22.441406 C 9.921875 23.164062 11.570312 23.171875 13.214844 23.171875 C 17.769531 23.171875 21.851562 20.625 23.378906 16.328125 L 17.714844 16.328125 C 15.253906 20.480469 8.488281 18.8125 8.488281 14.101562 L 23.902344 14.101562 C 24.203125 12.058594 23.824219 9.617188 22.644531 7.484375 Z M 3.027344 16.261719 C 3.855469 18.65625 5.542969 20.753906 7.726562 22.039062 C 3.566406 24.332031 -0.394531 23.402344 3.027344 16.261719 Z M 8.460938 11.15625 C 8.554688 8.570312 10.820312 6.710938 13.335938 6.710938 C 15.839844 6.710938 18.117188 8.570312 18.210938 11.15625 Z M 17.113281 2.363281 C 18.117188 1.878906 19.390625 1.332031 20.515625 1.332031 C 21.988281 1.332031 23.058594 2.347656 23.058594 3.847656 C 23.058594 4.789062 22.710938 6.148438 22.375 7.03125 C 21.144531 5.046875 19.28125 3.207031 17.113281 2.363281 Z M 17.113281 2.363281 "/>
</g>
</svg>
