<?xml version="1.0" encoding="UTF-8"?>
<svg xmlns="http://www.w3.org/2000/svg" xmlns:xlink="http://www.w3.org/1999/xlink" width="24pt" height="18pt" viewBox="0 0 8 6" version="1.1">
<g id="surface1">
<path style=" stroke:none;fill-rule:nonzero;fill:rgb(0%,0%,0%);fill-opacity:0.3;" d="M 3.484375 5.992188 L 2.722656 5.785156 C 2.644531 5.765625 2.597656 5.6875 2.621094 5.613281 L 4.328125 0.101562 C 4.351562 0.0273438 4.433594 -0.015625 4.515625 0.0078125 L 5.277344 0.214844 C 5.355469 0.234375 5.402344 0.3125 5.378906 0.386719 L 3.671875 5.898438 C 3.648438 5.972656 3.566406 6.015625 3.484375 5.992188 Z M 2.0625 4.679688 L 2.605469 4.136719 C 2.664062 4.078125 2.660156 3.988281 2.59375 3.933594 L 1.460938 3 L 2.59375 2.066406 C 2.660156 2.011719 2.664062 1.921875 2.605469 1.863281 L 2.0625 1.320312 C 2.003906 1.265625 1.910156 1.261719 1.847656 1.316406 L 0.046875 2.898438 C -0.015625 2.953125 -0.015625 3.046875 0.046875 3.101562 L 1.847656 4.683594 C 1.910156 4.738281 2.003906 4.738281 2.0625 4.679688 Z M 6.152344 4.6875 L 7.953125 3.101562 C 8.015625 3.046875 8.015625 2.953125 7.953125 2.898438 L 6.152344 1.3125 C 6.089844 1.261719 5.996094 1.261719 5.9375 1.320312 L 5.394531 1.863281 C 5.335938 1.921875 5.339844 2.011719 5.40625 2.066406 L 6.539062 3 L 5.40625 3.933594 C 5.339844 3.988281 5.335938 4.078125 5.394531 4.136719 L 5.9375 4.679688 C 5.996094 4.738281 6.089844 4.738281 6.152344 4.6875 Z M 6.152344 4.6875 "/>
</g>
</svg>
