<?xml version="1.0" encoding="UTF-8"?>
<svg xmlns="http://www.w3.org/2000/svg" xmlns:xlink="http://www.w3.org/1999/xlink" width="24pt" height="27pt" viewBox="0 0 8 9" version="1.1">
<g id="surface1">
<path style=" stroke:none;fill-rule:nonzero;fill:rgb(97%, 87%, 12%);fill-opacity:0.3;" d="M 7.144531 0.5625 L 0.855469 0.5625 C 0.382812 0.5625 0 0.941406 0 1.40625 L 0 7.59375 C 0 8.058594 0.382812 8.4375 0.855469 8.4375 L 7.144531 8.4375 C 7.617188 8.4375 8 8.058594 8 7.59375 L 8 1.40625 C 8 0.941406 7.617188 0.5625 7.144531 0.5625 Z M 4.355469 6.703125 C 4.355469 7.46875 3.894531 7.820312 3.230469 7.820312 C 2.628906 7.820312 2.28125 7.515625 2.101562 7.144531 L 2.714844 6.78125 C 2.832031 6.984375 2.9375 7.160156 3.199219 7.160156 C 3.445312 7.160156 3.601562 7.066406 3.601562 6.695312 L 3.601562 4.179688 L 4.355469 4.179688 Z M 6.132812 7.820312 C 5.433594 7.820312 4.980469 7.492188 4.761719 7.066406 L 5.375 6.714844 C 5.535156 6.976562 5.746094 7.167969 6.117188 7.167969 C 6.425781 7.167969 6.625 7.015625 6.625 6.800781 C 6.625 6.546875 6.421875 6.457031 6.078125 6.308594 L 5.890625 6.230469 C 5.347656 6.003906 4.988281 5.714844 4.988281 5.113281 C 4.988281 4.558594 5.417969 4.136719 6.089844 4.136719 C 6.566406 4.136719 6.910156 4.300781 7.15625 4.726562 L 6.570312 5.097656 C 6.441406 4.871094 6.304688 4.78125 6.085938 4.78125 C 5.867188 4.78125 5.730469 4.917969 5.730469 5.097656 C 5.730469 5.320312 5.867188 5.410156 6.191406 5.546875 L 6.378906 5.625 C 7.019531 5.894531 7.375 6.171875 7.375 6.789062 C 7.375 7.453125 6.84375 7.820312 6.132812 7.820312 Z M 6.132812 7.820312 "/>
</g>
</svg>
