<?xml version="1.0" encoding="UTF-8"?>
<svg xmlns="http://www.w3.org/2000/svg" xmlns:xlink="http://www.w3.org/1999/xlink" width="24pt" height="18pt" viewBox="0 0 8 6" version="1.1">
<g id="surface1">
<path style=" stroke:none;fill-rule:nonzero;fill:rgb(33%, 40%, 58%);fill-opacity:0.3;" d="M 4 1.226562 C 6.140625 1.226562 7.789062 2.070312 7.789062 3 C 7.789062 3.929688 6.140625 4.773438 4 4.773438 C 1.859375 4.773438 0.210938 3.929688 0.210938 3 C 0.210938 2.070312 1.859375 1.226562 4 1.226562 M 4 1.027344 C 1.792969 1.027344 0 1.910156 0 3 C 0 4.089844 1.792969 4.972656 4 4.972656 C 6.207031 4.972656 8 4.089844 8 3 C 8 1.910156 6.207031 1.027344 4 1.027344 Z M 2.726562 2.84375 C 2.628906 3.316406 2.28125 3.265625 1.851562 3.265625 L 2.023438 2.441406 C 2.496094 2.441406 2.820312 2.390625 2.726562 2.84375 Z M 1.21875 4.105469 L 1.675781 4.105469 L 1.785156 3.578125 C 2.296875 3.578125 2.617188 3.617188 2.914062 3.355469 C 3.238281 3.074219 3.324219 2.574219 3.089844 2.324219 C 2.96875 2.191406 2.773438 2.128906 2.511719 2.128906 L 1.625 2.128906 Z M 3.539062 1.601562 L 3.996094 1.601562 L 3.886719 2.125 C 4.28125 2.125 4.644531 2.101562 4.820312 2.253906 C 5.007812 2.410156 4.917969 2.617188 4.71875 3.578125 L 4.253906 3.578125 C 4.449219 2.648438 4.484375 2.570312 4.414062 2.5 C 4.347656 2.429688 4.191406 2.445312 3.820312 2.445312 L 3.585938 3.578125 L 3.128906 3.578125 Z M 6.3125 2.84375 C 6.210938 3.324219 5.855469 3.265625 5.4375 3.265625 L 5.609375 2.441406 C 6.085938 2.441406 6.40625 2.390625 6.3125 2.84375 Z M 4.800781 4.105469 L 5.261719 4.105469 L 5.371094 3.578125 C 5.910156 3.578125 6.210938 3.609375 6.5 3.355469 C 6.824219 3.074219 6.910156 2.574219 6.675781 2.324219 C 6.554688 2.191406 6.359375 2.128906 6.097656 2.128906 L 5.210938 2.128906 Z M 4.800781 4.105469 "/>
</g>
</svg>
