<?xml version="1.0" encoding="UTF-8"?>
<svg xmlns="http://www.w3.org/2000/svg" xmlns:xlink="http://www.w3.org/1999/xlink" width="24pt" height="27pt" viewBox="0 0 8 8" version="1.1">
<g id="surface1">
<path style=" stroke:none;fill-rule:nonzero;fill:rgb(13%, 46%, 61%);fill-opacity:0.3;" d="M 0.964844 2.648438 L 2.550781 6.992188 C 1.441406 6.453125 0.675781 5.316406 0.675781 4 C 0.675781 3.515625 0.78125 3.0625 0.964844 2.648438 Z M 6.242188 3.832031 C 6.242188 3.421875 6.097656 3.136719 5.96875 2.914062 C 5.800781 2.640625 5.644531 2.410156 5.644531 2.136719 C 5.644531 1.828125 5.875 1.546875 6.203125 1.546875 C 6.214844 1.546875 6.230469 1.546875 6.246094 1.546875 C 5.652344 1.007812 4.867188 0.675781 4 0.675781 C 2.839844 0.675781 1.816406 1.269531 1.222656 2.171875 C 1.300781 2.175781 1.375 2.179688 1.4375 2.179688 C 1.78125 2.179688 2.320312 2.136719 2.320312 2.136719 C 2.5 2.125 2.523438 2.390625 2.34375 2.410156 C 2.34375 2.410156 2.164062 2.429688 1.964844 2.441406 L 3.175781 6.039062 L 3.902344 3.859375 L 3.386719 2.441406 C 3.207031 2.429688 3.039062 2.410156 3.039062 2.410156 C 2.859375 2.398438 2.878906 2.125 3.058594 2.136719 C 3.058594 2.136719 3.605469 2.179688 3.933594 2.179688 C 4.28125 2.179688 4.820312 2.136719 4.820312 2.136719 C 5 2.125 5.019531 2.390625 4.839844 2.410156 C 4.839844 2.410156 4.660156 2.429688 4.460938 2.441406 L 5.664062 6.015625 L 5.992188 4.90625 C 6.132812 4.445312 6.242188 4.117188 6.242188 3.832031 Z M 4.058594 4.289062 L 3.0625 7.1875 C 3.359375 7.277344 3.671875 7.324219 4 7.324219 C 4.386719 7.324219 4.757812 7.257812 5.101562 7.136719 C 5.09375 7.121094 5.085938 7.105469 5.078125 7.089844 Z M 6.917969 2.40625 C 6.929688 2.511719 6.9375 2.625 6.9375 2.746094 C 6.9375 3.085938 6.875 3.460938 6.6875 3.9375 L 5.671875 6.875 C 6.660156 6.296875 7.324219 5.226562 7.324219 4 C 7.324219 3.421875 7.175781 2.878906 6.917969 2.40625 Z M 7.875 4 C 7.875 6.136719 6.136719 7.875 4 7.875 C 1.863281 7.875 0.125 6.136719 0.125 4 C 0.125 1.863281 1.863281 0.125 4 0.125 C 6.136719 0.125 7.875 1.863281 7.875 4 Z M 7.695312 4 C 7.695312 1.960938 6.039062 0.304688 4 0.304688 C 1.960938 0.304688 0.304688 1.960938 0.304688 4 C 0.304688 6.039062 1.960938 7.695312 4 7.695312 C 6.039062 7.695312 7.695312 6.039062 7.695312 4 Z M 7.695312 4 "/>
</g>
</svg>
