<?xml version="1.0" encoding="UTF-8"?>
<svg xmlns="http://www.w3.org/2000/svg" xmlns:xlink="http://www.w3.org/1999/xlink" width="24pt" height="30pt" viewBox="0 0 24 25" version="1.1">
<g id="surface1">
<path style=" stroke:none;fill-rule:nonzero;fill:rgb(99%, 49%, 29%);fill-opacity:0.3;" d="M 23.90625 11.488281 C 23.871094 11.269531 23.835938 11.140625 23.835938 11.140625 C 23.835938 11.140625 23.746094 11.242188 23.601562 11.429688 C 23.554688 10.910156 23.460938 10.394531 23.308594 9.886719 C 23.125 9.257812 22.886719 8.648438 22.585938 8.0625 C 22.394531 7.671875 22.175781 7.300781 21.921875 6.949219 C 21.828125 6.816406 21.734375 6.683594 21.640625 6.5625 C 21.199219 5.859375 20.691406 5.425781 20.105469 4.609375 C 19.726562 3.984375 19.460938 3.296875 19.335938 2.578125 C 19.175781 3.011719 19.050781 3.457031 18.964844 3.910156 C 18.359375 3.316406 17.839844 2.894531 17.519531 2.609375 C 15.96875 1.179688 16.148438 0.445312 16.148438 0.445312 C 16.148438 0.445312 13.234375 3.625 14.496094 6.933594 C 14.929688 8.054688 15.683594 9.039062 16.664062 9.761719 C 17.886719 10.746094 19.203125 11.519531 19.898438 13.5 C 19.339844 12.460938 18.496094 11.585938 17.460938 10.984375 C 17.769531 11.703125 17.929688 12.480469 17.925781 13.257812 C 17.925781 16.234375 15.445312 18.652344 12.394531 18.648438 C 11.980469 18.648438 11.570312 18.601562 11.171875 18.511719 C 10.695312 18.421875 10.234375 18.273438 9.800781 18.054688 C 9.15625 17.675781 8.601562 17.171875 8.160156 16.578125 L 8.148438 16.5625 L 8.25 16.597656 C 8.480469 16.675781 8.710938 16.734375 8.949219 16.777344 C 9.886719 16.972656 10.863281 16.859375 11.730469 16.453125 C 12.605469 15.980469 13.128906 15.628906 13.558594 15.769531 L 13.570312 15.769531 C 13.988281 15.902344 14.320312 15.503906 14.019531 15.085938 C 13.5 14.433594 12.648438 14.109375 11.808594 14.257812 C 10.933594 14.378906 10.136719 14.988281 8.988281 14.398438 C 8.914062 14.359375 8.84375 14.320312 8.773438 14.277344 C 8.695312 14.234375 9.019531 14.339844 8.945312 14.292969 C 8.695312 14.167969 8.453125 14.027344 8.226562 13.871094 C 8.210938 13.855469 8.398438 13.925781 8.378906 13.910156 C 8.085938 13.714844 7.828125 13.460938 7.628906 13.167969 C 7.425781 12.808594 7.40625 12.367188 7.578125 11.992188 C 7.683594 11.804688 7.851562 11.65625 8.046875 11.566406 C 8.195312 11.640625 8.285156 11.695312 8.285156 11.695312 C 8.285156 11.695312 8.21875 11.570312 8.179688 11.507812 C 8.195312 11.503906 8.203125 11.507812 8.21875 11.5 C 8.351562 11.550781 8.636719 11.695312 8.789062 11.78125 C 8.894531 11.835938 8.980469 11.914062 9.050781 12.011719 C 9.050781 12.011719 9.101562 11.988281 9.066406 11.878906 C 9.011719 11.746094 8.921875 11.636719 8.796875 11.558594 L 8.804688 11.558594 C 8.921875 11.617188 9.03125 11.683594 9.136719 11.757812 C 9.230469 11.542969 9.273438 11.308594 9.265625 11.074219 C 9.273438 10.945312 9.253906 10.816406 9.210938 10.691406 C 9.171875 10.613281 9.234375 10.585938 9.304688 10.667969 C 9.296875 10.605469 9.269531 10.546875 9.246094 10.488281 L 9.246094 10.484375 C 9.246094 10.484375 9.285156 10.429688 9.304688 10.410156 C 9.355469 10.359375 9.410156 10.316406 9.476562 10.277344 C 9.835938 10.058594 10.214844 9.867188 10.609375 9.710938 C 10.929688 9.574219 11.195312 9.472656 11.25 9.4375 C 11.328125 9.390625 11.40625 9.332031 11.476562 9.265625 C 11.738281 9.046875 11.925781 8.738281 11.984375 8.402344 C 11.988281 8.359375 11.996094 8.316406 12 8.265625 L 12 8.191406 C 11.953125 8.023438 11.65625 7.894531 10.078125 7.75 C 9.523438 7.660156 9.078125 7.253906 8.953125 6.71875 L 8.953125 6.714844 C 9.253906 5.945312 9.796875 5.292969 10.496094 4.84375 C 10.535156 4.808594 10.335938 4.851562 10.375 4.820312 C 10.511719 4.753906 10.644531 4.695312 10.785156 4.648438 C 10.855469 4.617188 10.484375 4.480469 10.15625 4.515625 C 9.953125 4.527344 9.753906 4.574219 9.570312 4.652344 C 9.648438 4.589844 9.878906 4.5 9.824219 4.5 C 9.40625 4.578125 9 4.730469 8.628906 4.941406 C 8.628906 4.902344 8.636719 4.867188 8.65625 4.832031 C 8.359375 4.957031 8.105469 5.152344 7.90625 5.394531 C 7.910156 5.351562 7.914062 5.308594 7.914062 5.261719 C 7.78125 5.359375 7.65625 5.472656 7.550781 5.601562 L 7.546875 5.605469 C 6.675781 5.277344 5.730469 5.199219 4.816406 5.375 L 4.804688 5.371094 L 4.816406 5.371094 C 4.625 5.21875 4.460938 5.042969 4.328125 4.839844 L 4.320312 4.84375 L 4.300781 4.832031 C 4.238281 4.746094 4.179688 4.648438 4.113281 4.539062 C 4.070312 4.460938 4.023438 4.375 3.980469 4.285156 C 3.980469 4.28125 3.976562 4.277344 3.96875 4.277344 C 3.949219 4.277344 3.941406 4.359375 3.925781 4.339844 L 3.925781 4.335938 C 3.765625 3.929688 3.691406 3.496094 3.703125 3.054688 L 3.695312 3.0625 C 3.441406 3.230469 3.246094 3.480469 3.140625 3.769531 C 3.09375 3.871094 3.058594 3.929688 3.03125 3.988281 L 3.03125 3.964844 C 3.035156 3.910156 3.058594 3.804688 3.054688 3.8125 C 3.050781 3.824219 3.046875 3.828125 3.039062 3.832031 C 2.964844 3.914062 2.894531 4.011719 2.84375 4.117188 C 2.800781 4.207031 2.761719 4.304688 2.730469 4.402344 C 2.726562 4.417969 2.730469 4.390625 2.730469 4.355469 C 2.730469 4.320312 2.734375 4.257812 2.730469 4.273438 L 2.714844 4.304688 C 2.378906 5.035156 2.171875 5.808594 2.09375 6.605469 C 2.074219 6.742188 2.066406 6.878906 2.070312 7.011719 L 2.070312 7.019531 C 1.828125 7.273438 1.621094 7.558594 1.433594 7.855469 C 0.828125 8.851562 0.378906 9.929688 0.09375 11.058594 C 0.296875 10.628906 0.535156 10.21875 0.808594 9.832031 C 0.273438 11.15625 0 12.566406 0 13.996094 C 0.0898438 13.574219 0.210938 13.164062 0.351562 12.757812 C 0.265625 14.445312 0.59375 16.125 1.320312 17.65625 C 2.289062 19.78125 3.898438 21.5625 5.933594 22.769531 C 6.765625 23.316406 7.671875 23.742188 8.625 24.027344 C 8.75 24.070312 8.878906 24.117188 9.011719 24.160156 C 8.96875 24.144531 8.929688 24.125 8.890625 24.109375 C 10.019531 24.445312 11.199219 24.613281 12.378906 24.613281 C 16.566406 24.613281 17.945312 23.058594 18.070312 22.90625 C 18.273438 22.726562 18.445312 22.503906 18.566406 22.257812 C 18.644531 22.222656 18.726562 22.1875 18.808594 22.152344 L 18.859375 22.128906 L 18.953125 22.085938 C 19.585938 21.796875 20.179688 21.429688 20.71875 21.007812 C 21.535156 20.433594 22.113281 19.605469 22.363281 18.65625 C 22.515625 18.308594 22.519531 17.925781 22.386719 17.574219 C 22.429688 17.503906 22.46875 17.4375 22.519531 17.363281 C 23.421875 15.953125 23.929688 14.339844 24 12.679688 L 24 12.542969 C 24 12.1875 23.96875 11.835938 23.90625 11.488281 Z M 8.953125 6.722656 C 8.933594 6.777344 8.910156 6.835938 8.890625 6.894531 C 8.910156 6.835938 8.929688 6.78125 8.953125 6.722656 Z M 8.953125 6.722656 "/>
</g>
</svg>
