<?xml version="1.0" encoding="UTF-8"?>
<svg xmlns="http://www.w3.org/2000/svg" xmlns:xlink="http://www.w3.org/1999/xlink" width="24pt" height="24pt" viewBox="0 0 24 24" version="1.1">
<g id="surface1">
<path style=" stroke:none;fill-rule:nonzero;fill:rgb(0%,0%,0%);fill-opacity:0.3;" d="M 6.363281 10.195312 L 2.667969 4.691406 C 4.96875 1.917969 8.425781 0.390625 11.957031 0.375 C 14.003906 0.359375 16.09375 0.867188 17.996094 1.929688 C 20.09375 3.113281 21.691406 4.808594 22.707031 6.757812 L 12.773438 6.253906 C 9.964844 6.09375 7.285156 7.625 6.363281 10.195312 Z M 7.953125 12 C 7.953125 14.164062 9.765625 15.917969 12 15.917969 C 14.234375 15.917969 16.046875 14.164062 16.046875 12 C 16.046875 9.835938 14.234375 8.082031 12 8.082031 C 9.765625 8.082031 7.953125 9.828125 7.953125 12 Z M 23.191406 7.820312 L 16.433594 8.15625 C 18.265625 10.234375 18.296875 13.226562 16.75 15.523438 L 11.328125 23.605469 C 13.578125 23.722656 15.894531 23.246094 17.996094 22.0625 C 23.191406 19.15625 25.296875 13.0625 23.191406 7.820312 Z M 6.46875 14.230469 L 1.953125 5.628906 C 0.722656 7.457031 0 9.652344 0 12 C 0 17.8125 4.394531 22.625 10.136719 23.480469 L 13.21875 17.628906 C 10.433594 18.136719 7.742188 16.65625 6.46875 14.230469 Z M 6.46875 14.230469 "/>
</g>
</svg>
